<svg width="560" height="470" viewBox="0 0 560 470" xmlns="http://www.w3.org/2000/svg">

<rect x="0" y="0" width="560" height="470" rx="28" fill="#0D1F0D"/>
<rect x="0" y="0" width="560" height="470" rx="28" fill="none" stroke="#C9A84C" stroke-width="2"/>
<rect x="0" y="0" width="560" height="6" rx="3" fill="#C9A84C"/>

<path d="M0 55 L0 0 L55 0" fill="none" stroke="#C9A84C" stroke-width="2.5" stroke-linecap="round"/>
<path d="M505 0 L560 0 L560 55" fill="none" stroke="#C9A84C" stroke-width="2.5" stroke-linecap="round"/>
<path d="M0 415 L0 470 L55 470" fill="none" stroke="#C9A84C" stroke-width="2.5" stroke-linecap="round"/>
<path d="M505 470 L560 470 L560 415" fill="none" stroke="#C9A84C" stroke-width="2.5" stroke-linecap="round"/>

<circle cx="280" cy="170" r="105" fill="none" stroke="#C9A84C" stroke-width="1" stroke-dasharray="3,6"/>
<circle cx="280" cy="170" r="98" fill="#0F2A0F"/>
<circle cx="280" cy="170" r="98" fill="none" stroke="#C9A84C" stroke-width="2"/>

<!-- Wheat left -->
<line x1="222" y1="210" x2="222" y2="115" stroke="#C9A84C" stroke-width="2.5" stroke-linecap="round"/>
<ellipse cx="209" cy="170" rx="7" ry="12" fill="#C9A84C" transform="rotate(-22,209,170)"/>
<ellipse cx="206" cy="148" rx="7" ry="12" fill="#E8C76A" transform="rotate(-28,206,148)"/>
<ellipse cx="209" cy="127" rx="7" ry="12" fill="#C9A84C" transform="rotate(-18,209,127)"/>
<ellipse cx="235" cy="170" rx="7" ry="12" fill="#C9A84C" transform="rotate(22,235,170)"/>
<ellipse cx="238" cy="148" rx="7" ry="12" fill="#E8C76A" transform="rotate(28,238,148)"/>
<ellipse cx="235" cy="127" rx="7" ry="12" fill="#C9A84C" transform="rotate(18,235,127)"/>
<ellipse cx="222" cy="107" rx="8" ry="13" fill="#E8C76A"/>

<!-- Wheat right -->
<line x1="338" y1="210" x2="338" y2="115" stroke="#C9A84C" stroke-width="2.5" stroke-linecap="round"/>
<ellipse cx="325" cy="170" rx="7" ry="12" fill="#C9A84C" transform="rotate(-22,325,170)"/>
<ellipse cx="322" cy="148" rx="7" ry="12" fill="#E8C76A" transform="rotate(-28,322,148)"/>
<ellipse cx="325" cy="127" rx="7" ry="12" fill="#C9A84C" transform="rotate(-18,325,127)"/>
<ellipse cx="351" cy="170" rx="7" ry="12" fill="#C9A84C" transform="rotate(22,351,170)"/>
<ellipse cx="354" cy="148" rx="7" ry="12" fill="#E8C76A" transform="rotate(28,354,148)"/>
<ellipse cx="351" cy="127" rx="7" ry="12" fill="#C9A84C" transform="rotate(18,351,127)"/>
<ellipse cx="338" cy="107" rx="8" ry="13" fill="#E8C76A"/>

<!-- Rupee coin -->
<circle cx="280" cy="173" r="45" fill="#C9A84C"/>
<circle cx="280" cy="173" r="38" fill="#E8C76A"/>
<circle cx="280" cy="173" r="33" fill="#B8860B"/>
<text x="280" y="186" text-anchor="middle" font-family="Arial, sans-serif" font-size="34" font-weight="700" fill="#FFF8DC">₹</text>

<path d="M252 213 Q266 203 280 210 Q294 203 308 213" fill="none" stroke="#4CAF50" stroke-width="2.5" stroke-linecap="round"/>
<circle cx="280" cy="210" r="3" fill="#4CAF50"/>

<!-- KisanSathi text -->
<text x="280" y="293" text-anchor="middle" font-family="Georgia, serif" font-size="38" font-weight="700" fill="#E8C76A" letter-spacing="4">KisanSathi</text>

<!-- Hindi tagline -->
<text x="280" y="323" text-anchor="middle" font-family="Arial, sans-serif" font-size="16" fill="#A8D5A2" letter-spacing="1">किसान का डिजिटल साथी</text>

<!-- Divider -->
<line x1="80" y1="345" x2="235" y2="345" stroke="#C9A84C" stroke-width="1"/>
<rect x="275" y="339" width="10" height="10" fill="#C9A84C" transform="rotate(45,280,345)"/>
<line x1="325" y1="345" x2="480" y2="345" stroke="#C9A84C" stroke-width="1"/>

<!-- FARMER FINANCE FUTURE -->
<text x="115" y="385" text-anchor="middle" font-family="Arial, sans-serif" font-size="13" font-weight="700" fill="#C9A84C" letter-spacing="3">FARMER</text>
<circle cx="180" cy="381" r="3" fill="#4CAF50"/>
<text x="280" y="385" text-anchor="middle" font-family="Arial, sans-serif" font-size="13" font-weight="700" fill="#E8C76A" letter-spacing="3">FINANCE</text>
<circle cx="380" cy="381" r="3" fill="#4CAF50"/>
<text x="448" y="385" text-anchor="middle" font-family="Arial, sans-serif" font-size="13" font-weight="700" fill="#C9A84C" letter-spacing="3">FUTURE</text>

<!-- Bottom tagline -->
<text x="280" y="420" text-anchor="middle" font-family="Arial, sans-serif" font-size="11" fill="#5D7A5D" letter-spacing="3">INDIA'S AGRI-TECH PLATFORM</text>

<rect x="0" y="464" width="560" height="6" rx="3" fill="#C9A84C"/>
</svg>
